{"glyphs":{":":{"x_min":0,"x_max":252,"ha":252,"o":"m 161 359 l 100 359 l 114 451 l 175 451 z m 107 0 l 46 0 l 60 93 l 121 93 z"},"$":{"x_min":0,"x_max":505,"ha":505,"o":"m 245 379 l 283 634 l 281 634 q 219 634 177 596 q 135 558 135 503 q 135 465 159 437 q 184 409 245 379 z m 234 46 q 297 48 338 85 q 379 122 379 174 q 379 212 352 245 q 326 279 273 307 z m 210 -110 l 173 -110 l 189 -1 q 146 3 109 15 q 72 27 41 47 l 49 98 q 86 74 123 61 q 159 48 196 46 l 238 327 q 155 366 120 406 q 86 447 86 505 q 86 581 142 628 q 198 676 291 679 l 299 737 l 337 737 l 328 678 q 357 676 387 668 q 417 660 450 644 l 443 600 q 414 613 384 622 q 354 630 321 633 l 279 362 q 356 322 394 277 q 431 232 431 177 q 431 104 375 54 q 318 5 227 1 z"},"?":{"x_min":0,"x_max":377,"ha":377,"o":"m 139 176 l 109 176 q 111 271 230 395 l 234 398 l 238 402 q 330 498 330 552 q 330 595 300 624 q 270 653 225 653 q 199 653 168 639 q 138 625 97 594 l 100 643 q 134 669 166 682 q 199 695 231 695 q 291 695 333 657 q 374 619 374 564 q 374 519 353 480 q 333 441 269 381 l 264 376 q 149 267 139 176 z m 125 0 l 64 0 l 78 93 l 139 93 z"},"<":{"x_min":0,"x_max":833,"ha":833,"o":"m 704 505 l 194 298 l 704 91 l 704 48 l 129 283 l 129 313 l 704 549 z"},"'":{"x_min":0,"x_max":139,"ha":139,"o":"m 91 700 l 91 430 l 49 430 l 49 700 z"},"=":{"x_min":0,"x_max":833,"ha":833,"o":"m 709 229 l 709 189 l 124 189 l 124 229 z m 709 406 l 709 367 l 124 367 l 124 406 z"},"a":{"x_min":0,"x_max":465,"ha":465,"o":"m 357 0 l 310 0 l 317 48 q 279 19 241 4 q 203 -10 163 -10 q 94 -10 51 40 q 7 90 7 170 q 7 229 32 283 q 58 338 105 378 q 149 417 204 434 q 259 451 337 451 l 424 451 z m 326 104 l 371 408 q 354 409 345 410 q 336 410 330 410 q 208 410 132 343 q 56 275 56 169 q 56 104 89 66 q 121 28 175 28 q 212 28 250 47 q 288 66 326 104 z"},"L":{"x_min":0,"x_max":417,"ha":417,"o":"m 83 0 l 30 0 l 132 683 l 185 683 l 90 46 l 399 46 l 392 0 z"},"3":{"x_min":0,"x_max":505,"ha":505,"o":"m 3 43 l 9 86 q 59 58 99 44 q 139 31 173 31 q 248 31 301 81 q 354 132 354 203 q 354 268 315 302 q 276 337 196 343 l 200 375 l 215 375 q 295 375 345 416 q 394 458 394 524 q 394 582 355 618 q 317 654 256 654 q 222 654 186 643 q 150 633 110 611 l 116 659 q 150 677 182 685 q 215 694 247 694 q 335 694 388 648 q 440 603 440 526 q 440 466 404 421 q 368 375 303 352 q 351 333 377 293 q 404 253 404 201 q 404 110 339 50 q 273 -11 175 -11 q 132 -11 89 2 q 47 16 3 43 z"},";":{"x_min":0,"x_max":252,"ha":252,"o":"m 164 359 l 103 359 l 117 451 l 178 451 z m 108 0 q 103 -35 83 -62 q 63 -89 25 -112 l 25 -87 q 49 -65 60 -44 q 71 -23 71 0 l 48 0 l 62 93 l 122 93 z"},"J":{"x_min":0,"x_max":218,"ha":218,"o":"m 89 -12 q 79 -82 69 -117 q 59 -152 44 -171 q 22 -200 -10 -216 q -42 -232 -79 -232 q -90 -232 -106 -229 q -122 -226 -145 -220 l -156 -167 q -134 -175 -118 -179 q -102 -183 -89 -183 q -32 -183 -6 -154 q 21 -125 32 -48 l 139 683 l 190 683 z"},"V":{"x_min":0,"x_max":451,"ha":451,"o":"m 186 -12 l 165 -12 l 30 683 l 76 683 l 188 101 l 450 683 l 500 683 z"},"\"":{"x_min":0,"x_max":269,"ha":269,"o":"m 220 700 l 220 430 l 178 430 l 178 700 z m 91 700 l 91 430 l 49 430 l 49 700 z"},"7":{"x_min":0,"x_max":505,"ha":505,"o":"m 142 0 l 91 0 l 410 641 l 83 641 l 87 683 l 487 683 z"},"S":{"x_min":0,"x_max":396,"ha":396,"o":"m 12 33 l 30 77 q 65 55 96 45 q 127 34 155 34 q 215 34 256 74 q 297 114 297 172 q 297 235 200 324 l 194 329 q 114 402 90 442 q 66 481 66 524 q 66 596 120 645 q 175 694 257 694 q 284 694 313 685 q 343 677 378 658 l 363 617 q 332 634 304 643 q 277 651 253 651 q 193 651 154 614 q 115 577 115 521 q 115 464 212 379 q 226 367 233 361 q 304 298 326 262 q 348 226 348 186 q 348 98 294 43 q 241 -12 155 -12 q 119 -12 84 -1 q 48 10 12 33 z"},"}":{"x_min":0,"x_max":500,"ha":500,"o":"m 266 537 l 266 420 q 266 343 294 311 q 323 280 392 280 q 396 280 403 280 q 410 281 414 281 l 414 237 q 410 237 403 237 q 396 238 392 238 q 323 238 294 207 q 266 175 266 98 l 266 -19 q 266 -129 233 -166 q 199 -202 107 -202 l 86 -202 l 86 -159 l 105 -159 q 170 -159 193 -135 q 216 -110 216 -31 l 216 87 q 216 172 237 208 q 258 243 312 259 q 258 274 237 310 q 216 346 216 431 l 216 549 q 216 628 193 653 q 170 678 104 678 l 86 678 l 86 721 l 107 721 q 199 721 233 685 q 266 648 266 537 z"},"Z":{"x_min":0,"x_max":648,"ha":648,"o":"m 566 5 l -4 5 l -4 21 l 564 633 l 103 633 l 112 678 l 654 678 l 654 661 l 86 50 l 571 50 z"},"x":{"x_min":0,"x_max":429,"ha":429,"o":"m 31 0 l -25 0 l 191 239 l 68 451 l 119 451 l 220 272 l 382 451 l 439 451 l 243 234 l 378 0 l 329 0 l 213 200 z"},")":{"x_min":0,"x_max":302,"ha":302,"o":"m -13 -236 l -70 -236 q 62 -90 121 39 q 181 169 181 307 q 181 396 158 488 q 135 580 84 694 l 131 694 q 180 597 204 498 q 229 400 229 303 q 229 163 169 30 q 110 -103 -13 -236 z"},"&":{"x_min":0,"x_max":648,"ha":648,"o":"m 239 407 q 316 443 354 483 q 392 522 392 566 q 392 605 366 630 q 340 655 299 655 q 252 655 222 625 q 192 594 192 546 q 192 519 203 485 q 215 452 239 407 z m 382 100 q 340 150 301 208 q 261 267 216 346 q 143 310 107 267 q 71 224 71 173 q 71 114 115 74 q 159 34 224 34 q 265 34 304 51 q 343 67 382 100 z m 600 -9 q 590 -10 585 -11 q 580 -11 575 -11 q 537 -11 498 7 q 458 25 416 62 q 371 23 327 5 q 283 -13 233 -13 q 138 -13 79 38 q 20 88 20 167 q 20 233 63 288 q 106 342 194 385 q 170 431 157 473 q 144 516 144 548 q 144 612 189 654 q 233 697 301 697 q 362 697 401 660 q 439 623 439 563 q 439 507 395 457 q 350 408 263 367 q 313 279 347 228 q 382 176 416 137 q 457 178 491 227 q 525 276 555 336 l 612 336 q 584 275 545 216 q 505 157 452 97 q 489 65 528 50 q 566 34 609 34 l 625 34 z"},"_":{"x_min":0,"x_max":500,"ha":500,"o":"m 500 -197 l 500 -236 l 0 -236 l 0 -197 z"},"v":{"x_min":0,"x_max":358,"ha":358,"o":"m 125 -9 l 108 -9 l 6 451 l 49 451 l 130 90 l 325 451 l 367 451 z"},"O":{"x_min":0,"x_max":641,"ha":641,"o":"m 34 267 q 34 354 60 436 q 86 518 135 581 q 176 636 236 665 q 295 695 365 695 q 477 695 542 619 q 607 544 607 414 q 607 329 581 247 q 555 166 507 103 q 463 46 406 17 q 348 -12 277 -12 q 164 -12 99 62 q 34 137 34 267 z m 364 651 q 307 651 257 625 q 208 599 174 551 q 133 493 110 419 q 88 345 88 267 q 88 156 138 94 q 188 31 276 31 q 334 31 383 57 q 433 83 468 133 q 508 190 531 264 q 553 337 553 415 q 553 526 503 588 q 453 651 364 651 z"},"(":{"x_min":0,"x_max":302,"ha":302,"o":"m 280 694 l 337 694 q 206 548 146 418 q 86 288 86 150 q 86 62 109 -31 q 132 -123 183 -237 l 136 -237 q 87 -140 63 -41 q 38 57 38 154 q 38 294 98 428 q 157 561 280 694 z"},"C":{"x_min":0,"x_max":573,"ha":573,"o":"m 505 42 q 454 15 404 1 q 354 -12 304 -12 q 188 -12 112 72 q 35 156 35 286 q 35 369 72 448 q 109 528 176 590 q 230 640 303 667 q 375 694 454 694 q 481 694 511 691 q 541 688 572 683 l 565 641 q 534 646 510 648 q 486 651 467 651 q 389 651 322 625 q 255 600 204 551 q 149 499 118 428 q 87 358 87 287 q 87 176 150 106 q 213 36 313 36 q 359 36 408 53 q 458 69 515 104 z"},"W":{"x_min":0,"x_max":873,"ha":873,"o":"m 188 100 l 453 683 l 497 683 l 611 100 l 872 683 l 922 683 l 609 -12 l 587 -12 l 466 612 l 186 -12 l 165 -12 l 30 683 l 75 683 z"},"A":{"x_min":0,"x_max":525,"ha":525,"o":"m 10 0 l -43 0 l 275 683 l 316 683 l 479 0 l 431 0 l 372 250 l 123 250 z m 146 296 l 362 296 l 289 608 z"},"f":{"x_min":0,"x_max":225,"ha":225,"o":"m 47 -198 l 2 -198 l 82 414 l -9 414 l -6 451 l 88 451 l 96 509 q 109 604 153 647 q 196 690 277 690 q 297 690 317 686 q 338 683 362 675 l 350 637 q 332 645 315 648 q 297 652 280 652 q 222 652 188 622 q 155 593 146 534 l 133 451 l 243 451 l 236 414 l 130 414 z"},"Q":{"x_min":0,"x_max":641,"ha":641,"o":"m 364 651 q 307 651 257 625 q 208 599 174 551 q 133 493 110 419 q 88 345 88 267 q 88 156 138 94 q 188 31 276 31 q 334 31 383 57 q 433 83 468 133 q 508 190 531 264 q 553 337 553 415 q 553 526 503 588 q 453 651 364 651 z m 244 -12 q 146 0 90 74 q 34 148 34 268 q 34 354 60 436 q 86 518 134 581 q 176 636 235 666 q 295 695 365 695 q 477 695 542 619 q 607 544 607 414 q 607 329 581 247 q 555 166 507 103 q 468 51 417 23 q 366 -6 302 -12 q 333 -74 377 -107 q 422 -141 474 -141 q 528 -141 566 -103 q 604 -64 622 7 q 623 2 623 -3 q 623 -9 623 -20 q 623 -97 579 -144 q 535 -190 463 -190 q 392 -190 334 -143 q 276 -96 244 -12 z"},"w":{"x_min":0,"x_max":567,"ha":567,"o":"m 111 -9 l 94 -9 l -11 451 l 33 451 l 114 90 l 293 451 l 309 451 l 375 90 l 558 451 l 601 451 l 369 -9 l 351 -9 l 286 343 z"},"-":{"x_min":0,"x_max":338,"ha":338,"o":"m 32 204 l 39 247 l 270 247 l 263 204 z"},"E":{"x_min":0,"x_max":507,"ha":507,"o":"m 485 0 l 30 0 l 132 683 l 483 683 l 476 641 l 173 641 l 133 372 l 419 372 l 412 329 l 126 329 l 84 46 l 492 46 z"},"s":{"x_min":0,"x_max":339,"ha":339,"o":"m -19 58 l 4 93 q 37 61 70 45 q 104 29 138 29 q 181 29 209 51 q 237 73 237 106 q 237 150 143 212 l 136 217 q 63 265 43 292 q 23 318 23 350 q 23 398 62 429 q 102 460 164 460 q 202 460 237 449 q 272 439 305 417 l 297 372 q 259 397 225 409 q 191 422 161 422 q 120 422 94 403 q 68 383 68 354 q 68 318 160 257 l 167 253 q 244 203 265 174 q 286 145 286 108 q 286 57 245 24 q 204 -9 139 -9 q 91 -9 52 8 q 12 24 -19 58 z"},">":{"x_min":0,"x_max":833,"ha":833,"o":"m 704 313 l 704 283 l 129 48 l 129 91 l 639 298 l 129 505 l 129 549 z"},"l":{"x_min":0,"x_max":177,"ha":177,"o":"m 54 0 l 10 0 l 112 683 l 156 683 z"},"8":{"x_min":0,"x_max":505,"ha":505,"o":"m 212 28 q 288 28 342 81 q 396 134 396 208 q 396 269 355 305 q 314 342 246 342 q 168 342 118 294 q 68 246 68 172 q 68 111 110 70 q 151 28 212 28 z m 144 504 q 144 454 181 419 q 218 384 274 384 q 337 384 378 426 q 419 467 419 531 q 419 582 383 616 q 346 650 290 650 q 228 650 186 608 q 144 565 144 504 z m 339 360 q 391 338 417 300 q 443 262 443 209 q 443 115 376 52 q 310 -12 209 -12 q 125 -12 74 40 q 22 92 22 175 q 22 251 62 302 q 103 353 178 369 q 133 393 112 426 q 91 459 91 506 q 91 583 152 639 q 212 694 299 694 q 371 694 419 646 q 468 599 468 528 q 468 468 435 425 q 402 382 339 360 z"},"\\":{"x_min":0,"x_max":204,"ha":204,"o":"m 136 -93 l 29 694 l 77 694 l 183 -93 z"},"e":{"x_min":0,"x_max":436,"ha":436,"o":"m 360 87 l 359 39 q 327 14 292 2 q 257 -10 217 -10 q 125 -10 69 51 q 12 111 12 210 q 12 317 73 389 q 135 461 224 461 q 303 461 346 412 q 389 364 389 275 q 389 261 389 255 q 389 248 388 242 l 65 242 q 64 236 64 231 q 64 225 64 214 q 64 129 107 80 q 149 31 222 31 q 253 31 288 45 q 322 59 360 87 z m 344 278 l 344 288 q 344 349 312 384 q 280 420 227 420 q 171 420 130 382 q 88 344 72 278 z"},"b":{"x_min":0,"x_max":465,"ha":465,"o":"m 9 0 l 111 683 l 155 683 l 114 405 q 151 434 188 448 q 224 463 260 463 q 333 463 378 413 q 423 363 423 283 q 423 199 373 128 q 324 57 244 27 q 207 13 157 7 q 108 0 42 0 z m 105 347 l 60 40 l 79 40 q 216 40 295 107 q 374 174 374 290 q 374 350 341 386 q 309 423 255 423 q 217 423 179 404 q 141 384 105 347 z"},"%":{"x_min":0,"x_max":865,"ha":865,"o":"m 506 172 q 506 114 545 73 q 585 33 642 33 q 699 33 739 74 q 779 114 779 172 q 779 230 739 271 q 699 311 642 311 q 585 311 545 271 q 506 230 506 172 z m 457 172 q 457 249 511 303 q 565 357 642 357 q 719 357 774 303 q 828 249 828 172 q 828 95 774 41 q 719 -13 642 -13 q 565 -13 511 41 q 457 95 457 172 z m 177 -12 l 635 694 l 688 694 l 229 -12 z m 86 509 q 86 451 125 410 q 165 370 222 370 q 279 370 319 411 q 359 451 359 509 q 359 567 319 607 q 279 648 222 648 q 165 648 125 608 q 86 567 86 509 z m 37 509 q 37 586 91 640 q 145 694 222 694 q 299 694 353 640 q 407 586 407 509 q 407 432 353 378 q 299 324 222 324 q 145 324 91 378 q 37 432 37 509 z"},"m":{"x_min":0,"x_max":724,"ha":724,"o":"m 9 0 l 76 451 l 123 451 l 112 383 q 154 423 194 442 q 234 462 276 462 q 321 462 346 440 q 371 418 378 373 q 422 417 464 440 q 507 462 548 462 q 600 462 629 431 q 658 401 658 345 q 658 333 656 316 q 655 299 651 270 l 612 0 l 567 0 l 608 282 q 611 305 613 320 q 614 335 614 344 q 614 380 596 401 q 578 422 546 422 q 506 422 464 397 q 421 373 380 326 l 337 0 l 291 0 l 332 282 q 335 303 336 318 q 338 332 338 340 q 338 378 320 400 q 302 422 270 422 q 229 422 188 397 q 146 373 104 326 l 55 0 z"},"#":{"x_min":0,"x_max":769,"ha":769,"o":"m 478 423 l 346 423 l 298 285 l 429 285 z m 447 710 l 362 467 l 494 467 l 580 710 l 634 710 l 549 467 l 706 467 l 691 423 l 533 423 l 484 285 l 654 285 l 639 241 l 468 241 l 383 0 l 328 0 l 414 241 l 282 241 l 195 0 l 141 0 l 226 241 l 63 241 l 78 285 l 242 285 l 291 423 l 115 423 l 129 467 l 307 467 l 393 710 z"},",":{"x_min":0,"x_max":252,"ha":252,"o":"m 109 0 q 104 -36 84 -63 q 63 -91 26 -112 l 26 -87 q 49 -66 61 -45 q 72 -24 72 -3 l 72 0 l 50 0 l 64 93 l 123 93 z"},"n":{"x_min":0,"x_max":456,"ha":456,"o":"m 9 0 l 76 451 l 123 451 l 112 383 q 155 422 197 442 q 239 462 279 462 q 334 462 364 431 q 394 401 394 345 q 394 332 392 313 q 391 293 387 270 l 347 0 l 300 0 l 342 282 q 345 300 347 315 q 348 331 348 344 q 348 383 329 402 q 310 422 273 422 q 233 422 190 397 q 146 373 104 326 l 55 0 z"},"h":{"x_min":0,"x_max":456,"ha":456,"o":"m 9 0 l 111 683 l 158 683 l 112 383 q 156 423 198 442 q 241 462 284 462 q 336 462 365 430 q 394 397 394 339 q 394 330 393 317 q 392 303 387 270 l 347 0 l 300 0 l 342 282 q 344 298 346 313 q 347 329 347 342 q 347 380 329 401 q 311 422 277 422 q 235 422 192 398 q 148 374 104 326 l 55 0 z"},"z":{"x_min":0,"x_max":428,"ha":428,"o":"m 350 5 l -42 5 l -42 20 l 337 406 l 39 406 l 47 447 l 415 447 l 415 421 l 46 47 l 355 47 z"},"B":{"x_min":0,"x_max":544,"ha":544,"o":"m 28 0 l 130 683 l 155 683 q 288 683 355 645 q 422 606 422 529 q 422 486 401 449 q 379 413 338 383 q 407 362 444 318 q 481 273 481 211 q 481 163 460 121 q 440 79 403 51 q 367 23 321 12 q 276 0 169 0 z m 84 46 l 218 46 q 320 46 377 90 q 433 134 433 213 q 433 277 387 314 q 342 351 263 351 l 130 351 z m 137 396 l 215 396 q 291 396 333 431 q 376 465 376 526 q 376 586 326 615 q 276 645 175 645 z"},"K":{"x_min":0,"x_max":530,"ha":530,"o":"m 82 0 l 30 0 l 132 683 l 184 683 l 141 394 l 486 683 l 553 683 l 196 377 l 537 0 l 481 0 l 137 370 z"},"R":{"x_min":0,"x_max":505,"ha":505,"o":"m 132 352 l 212 352 q 314 352 365 389 q 415 427 415 503 q 415 567 373 602 q 332 636 254 636 l 174 636 z m 79 0 l 30 0 l 132 683 l 244 683 q 354 683 412 637 q 470 590 470 503 q 470 431 429 378 q 387 326 317 310 q 335 292 355 256 l 357 252 l 500 0 l 441 0 q 433 11 425 23 q 417 35 411 47 l 299 250 q 280 285 262 296 q 244 306 205 306 l 125 306 z"},"T":{"x_min":0,"x_max":458,"ha":458,"o":"m 212 0 l 163 0 l 257 636 l 54 636 l 61 683 l 497 683 l 492 636 l 305 636 z"},"P":{"x_min":0,"x_max":477,"ha":477,"o":"m 26 0 l 134 683 l 230 683 q 286 683 318 677 q 351 671 374 658 q 419 632 441 592 q 464 551 464 498 q 464 405 401 352 q 339 299 228 299 l 124 299 l 80 0 z m 131 347 l 214 347 q 313 347 361 384 q 408 420 408 497 q 408 569 368 603 q 327 636 241 636 l 175 636 z"},"|":{"x_min":0,"x_max":500,"ha":500,"o":"m 272 764 l 272 -236 l 228 -236 l 228 764 z"},"t":{"x_min":0,"x_max":300,"ha":300,"o":"m 111 170 q 108 150 107 135 q 106 120 106 109 q 106 68 123 47 q 140 27 174 27 q 193 27 215 36 q 237 44 265 63 l 265 24 q 241 7 218 -1 q 194 -10 169 -10 q 118 -10 89 21 q 60 51 60 105 q 60 123 62 143 q 63 164 67 185 l 101 416 l 20 416 l 25 451 l 106 451 l 121 549 l 167 549 l 152 451 l 276 451 l 271 416 l 147 416 z"},"M":{"x_min":0,"x_max":806,"ha":806,"o":"m 37 0 l -13 0 l 204 683 l 247 683 l 375 108 l 669 683 l 712 683 l 721 0 l 676 0 l 668 585 l 370 0 l 351 0 l 221 584 z"},"g":{"x_min":0,"x_max":399,"ha":399,"o":"m 157 -16 q 81 -30 40 -54 q -1 -78 -1 -110 q -1 -145 38 -169 q 76 -194 135 -194 q 208 -194 252 -169 q 297 -145 297 -106 q 297 -75 267 -55 q 237 -36 157 -16 z m 172 165 q 229 165 269 203 q 308 241 308 297 q 308 348 277 380 q 247 412 198 412 q 139 412 101 374 q 64 336 64 276 q 64 226 94 195 q 123 165 172 165 z m 110 -1 q 66 9 43 28 q 21 46 21 72 q 21 97 43 115 q 66 133 107 141 q 62 164 40 198 q 18 232 18 278 q 18 360 70 406 q 121 451 215 451 l 412 451 l 412 415 l 297 415 q 325 396 339 366 q 353 337 353 300 q 353 241 321 198 q 288 155 230 138 q 201 130 160 124 q 120 118 110 115 q 86 107 74 98 q 63 88 63 76 q 63 50 146 28 q 176 21 193 16 q 281 -9 312 -35 q 343 -61 343 -103 q 343 -157 284 -193 q 225 -228 131 -228 q 55 -228 7 -195 q -42 -163 -42 -113 q -42 -76 -6 -49 q 30 -22 110 -1 z"},"j":{"x_min":0,"x_max":182,"ha":182,"o":"m 154 569 l 107 569 l 119 639 l 165 639 z m 67 -8 q 47 -146 14 -187 q -19 -228 -89 -228 q -99 -228 -111 -226 q -123 -224 -138 -219 l -127 -178 q -116 -181 -105 -183 q -94 -185 -85 -185 q -40 -185 -17 -151 q 6 -117 23 -1 l 90 451 l 137 451 z"},"i":{"x_min":0,"x_max":177,"ha":177,"o":"m 57 0 l 10 0 l 77 451 l 124 451 z m 137 569 l 91 569 l 101 639 l 148 639 z"},"y":{"x_min":0,"x_max":382,"ha":382,"o":"m 17 -227 l -31 -227 l 97 13 l 15 451 l 58 451 l 128 73 l 329 451 l 377 451 z"},"@":{"x_min":0,"x_max":1000,"ha":1000,"o":"m 636 404 l 666 467 l 705 467 l 638 197 q 633 179 631 165 q 628 151 628 144 q 628 123 643 111 q 658 99 685 99 q 708 99 734 109 q 759 118 784 136 q 833 172 863 237 q 893 302 893 375 q 893 508 796 590 q 698 671 539 671 q 457 671 387 647 q 318 624 261 577 q 186 515 148 432 q 110 350 110 249 q 110 89 218 -6 q 326 -101 507 -101 q 585 -101 665 -76 q 745 -52 811 -7 l 825 -29 q 754 -83 675 -109 q 595 -136 509 -136 q 417 -136 341 -114 q 265 -91 206 -46 q 132 10 95 85 q 59 159 59 255 q 59 334 84 405 q 108 476 156 534 q 226 620 324 664 q 423 708 544 708 q 622 708 693 687 q 763 665 814 626 q 876 578 909 515 q 941 453 941 380 q 941 297 910 229 q 879 162 822 116 q 789 90 751 76 q 712 62 673 62 q 626 62 603 80 q 579 98 579 133 q 579 139 581 149 q 581 151 581 152 q 557 109 520 85 q 483 62 439 62 q 364 62 325 103 q 286 143 286 221 q 286 333 352 410 q 417 487 511 487 q 558 487 589 466 q 621 445 636 404 z m 595 228 l 626 352 q 615 400 586 426 q 557 451 512 451 q 438 451 387 384 q 337 316 337 218 q 337 162 365 130 q 393 98 443 98 q 497 98 539 134 q 580 169 595 228 z"},".":{"x_min":0,"x_max":252,"ha":252,"o":"m 110 0 l 49 0 l 63 93 l 124 93 z"},"p":{"x_min":0,"x_max":457,"ha":457,"o":"m 35 -227 l -12 -227 l 76 360 q 49 336 24 303 q 0 270 -8 270 q -9 270 -10 271 q -11 271 -11 272 q -11 291 15 328 q 42 366 84 403 l 104 542 l 151 542 l 134 431 q 156 446 182 453 q 208 460 241 460 q 309 460 357 401 q 406 342 406 257 q 406 139 333 65 q 261 -8 144 -8 q 130 -8 113 -6 q 95 -4 71 0 z m 74 31 q 100 28 113 27 q 126 26 134 26 q 237 26 296 87 q 356 148 356 254 q 356 331 319 377 q 282 423 222 423 q 196 423 173 416 q 150 408 129 393 z"},"X":{"x_min":0,"x_max":654,"ha":654,"o":"m 32 0 l -31 0 l 305 356 l 81 683 l 137 683 l 339 390 l 619 683 l 685 683 l 366 351 l 608 0 l 553 0 l 332 316 z"},"*":{"x_min":0,"x_max":442,"ha":442,"o":"m 221 297 l 240 482 l 123 337 l 87 372 l 232 490 l 47 471 l 47 520 l 232 501 l 87 619 l 123 654 l 240 509 l 221 694 l 271 694 l 251 509 l 369 654 l 404 619 l 259 501 l 445 520 l 445 471 l 259 490 l 404 372 l 369 337 l 251 482 l 271 297 z"},"Y":{"x_min":0,"x_max":420,"ha":420,"o":"m 177 0 l 129 0 l 185 355 l 22 683 l 72 683 l 216 403 l 436 683 l 493 683 l 238 355 z"},"c":{"x_min":0,"x_max":413,"ha":413,"o":"m 347 67 l 341 21 q 306 6 273 -1 q 241 -9 212 -9 q 128 -9 75 47 q 22 104 22 193 q 22 240 39 286 q 55 333 86 370 q 123 416 174 439 q 226 462 289 462 q 307 462 330 458 q 353 455 381 447 l 374 401 q 347 408 325 412 q 303 415 285 415 q 193 415 132 353 q 70 291 70 198 q 70 124 112 78 q 155 33 224 33 q 250 33 281 42 q 311 50 347 67 z"},"!":{"x_min":0,"x_max":252,"ha":252,"o":"m 122 174 l 103 174 l 156 683 l 217 683 z m 115 0 l 54 0 l 68 93 l 129 93 z"},"/":{"x_min":0,"x_max":204,"ha":204,"o":"m 202 694 l 249 694 l -25 -93 l -73 -93 z"},"[":{"x_min":0,"x_max":302,"ha":302,"o":"m 129 683 l 341 683 l 333 637 l 167 637 l 47 -171 l 220 -171 l 212 -220 l -6 -220 z"},"6":{"x_min":0,"x_max":505,"ha":505,"o":"m 310 683 l 363 683 l 156 369 q 190 392 222 404 q 255 415 285 415 q 357 415 399 372 q 442 328 442 255 q 442 218 429 179 q 417 139 393 100 q 360 47 310 17 q 259 -13 203 -13 q 125 -13 76 39 q 27 90 27 173 q 27 218 48 271 q 69 323 114 390 z m 276 373 q 196 373 138 314 q 79 254 79 173 q 79 112 116 73 q 152 33 208 33 q 239 33 267 46 q 296 60 321 85 q 353 117 373 164 q 393 211 393 254 q 393 309 361 341 q 330 373 276 373 z"},"r":{"x_min":0,"x_max":288,"ha":288,"o":"m 54 0 l 9 0 l 77 451 l 121 451 l 103 333 q 162 407 197 434 q 231 461 263 461 q 274 461 284 458 q 295 455 305 448 l 303 409 q 293 415 283 418 q 272 421 263 421 q 245 421 224 409 q 204 397 175 369 q 131 326 112 294 q 93 261 87 222 z"},"2":{"x_min":0,"x_max":505,"ha":505,"o":"m 406 0 l 9 0 l 261 297 q 319 365 350 429 q 382 493 382 542 q 382 589 350 619 q 318 650 269 650 q 233 650 194 635 q 154 619 106 586 l 108 635 q 149 666 189 680 q 229 695 271 695 q 343 695 389 651 q 436 608 436 541 q 436 488 399 415 q 361 343 292 262 l 110 49 l 410 49 z"},"{":{"x_min":0,"x_max":500,"ha":500,"o":"m 414 678 l 396 678 q 330 678 307 653 q 284 628 284 549 l 284 431 q 284 346 263 310 q 242 274 189 259 q 242 243 263 208 q 284 173 284 87 l 284 -31 q 284 -110 307 -135 q 330 -159 395 -159 l 414 -159 l 414 -202 l 393 -202 q 301 -202 267 -166 q 234 -129 234 -19 l 234 98 q 234 175 206 207 q 177 238 108 238 q 104 238 97 237 q 90 237 86 237 l 86 281 q 91 280 96 280 q 101 280 110 280 q 178 280 206 311 q 234 343 234 420 l 234 537 q 234 648 267 685 q 301 721 393 721 l 414 721 z"},"9":{"x_min":0,"x_max":505,"ha":505,"o":"m 189 0 l 136 0 l 343 313 q 309 290 277 279 q 244 267 214 267 q 142 267 100 310 q 59 354 59 429 q 59 482 79 533 q 99 583 136 622 q 169 658 210 676 q 250 695 295 695 q 372 695 421 644 q 470 593 470 513 q 470 466 450 413 q 429 360 384 293 z m 225 312 q 303 312 361 372 q 418 433 418 515 q 418 577 384 614 q 349 652 293 652 q 263 652 234 639 q 206 626 181 600 q 149 568 130 521 q 111 475 111 431 q 111 376 142 344 q 172 312 225 312 z"}," ":{"x_min":0,"x_max":252,"ha":252,"o":""},"I":{"x_min":0,"x_max":211,"ha":211,"o":"m 81 0 l 30 0 l 132 683 l 183 683 z"},"H":{"x_min":0,"x_max":703,"ha":703,"o":"m 30 0 l 132 683 l 181 683 l 134 370 l 577 370 l 623 683 l 673 683 l 571 0 l 522 0 l 570 326 l 128 326 l 79 0 z"},"4":{"x_min":0,"x_max":505,"ha":505,"o":"m 303 269 l 349 575 l 92 269 z m 313 0 l 263 0 l 298 225 l 27 225 l 29 254 l 393 683 l 415 683 l 353 269 l 463 269 l 457 225 l 347 225 z"},"~":{"x_min":0,"x_max":833,"ha":833,"o":"m 747 316 q 695 280 648 262 q 602 244 558 244 q 510 244 428 274 q 420 277 417 278 q 412 280 401 284 q 320 313 276 313 q 235 313 190 295 q 146 276 87 235 l 87 280 q 138 316 185 333 q 232 351 276 351 q 325 351 408 321 q 414 319 417 318 q 421 316 431 313 q 513 283 558 283 q 599 283 644 302 q 688 320 747 361 z"},"D":{"x_min":0,"x_max":644,"ha":644,"o":"m 81 44 l 203 44 q 284 44 340 57 q 395 71 435 100 q 488 139 517 199 q 546 259 546 332 q 546 401 520 463 q 493 524 444 568 q 402 605 349 622 q 296 639 224 639 l 170 639 z m 25 0 l 127 683 l 217 683 q 290 683 344 670 q 398 658 440 631 q 517 583 558 505 q 600 426 600 330 q 600 254 570 188 q 540 123 485 77 q 435 36 372 18 q 309 0 188 0 z"},"^":{"x_min":0,"x_max":1000,"ha":1000,"o":"m 528 712 l 792 440 l 731 440 l 500 669 l 268 440 l 207 440 l 470 712 z"},"0":{"x_min":0,"x_max":505,"ha":505,"o":"m 34 237 q 34 331 58 423 q 83 516 125 583 q 159 637 204 666 q 249 695 298 695 q 378 695 425 628 q 471 562 471 445 q 471 350 447 258 q 423 167 381 100 q 347 46 302 17 q 257 -12 207 -12 q 127 -12 81 55 q 34 122 34 237 z m 296 652 q 257 652 222 626 q 186 600 159 552 q 124 490 103 406 q 83 321 83 235 q 83 140 117 85 q 151 30 209 30 q 247 30 282 56 q 318 83 346 132 q 381 194 401 278 q 421 362 421 447 q 421 543 388 598 q 354 652 296 652 z"},"F":{"x_min":0,"x_max":472,"ha":472,"o":"m 30 0 l 132 683 l 483 683 l 476 641 l 171 641 l 131 372 l 419 372 l 412 329 l 125 329 l 75 0 z"},"`":{"x_min":0,"x_max":500,"ha":500,"o":"m 324 515 l 289 515 l 153 685 l 211 685 z"},"k":{"x_min":0,"x_max":374,"ha":374,"o":"m 91 248 l 294 451 l 361 451 l 143 239 l 380 0 l 320 0 l 87 232 l 54 0 l 10 0 l 112 683 l 156 683 z"},"u":{"x_min":0,"x_max":456,"ha":456,"o":"m 413 453 l 345 0 l 298 0 l 309 70 q 265 29 222 10 q 180 -10 137 -10 q 85 -10 57 22 q 28 55 28 113 q 28 125 30 142 q 32 160 35 182 l 75 453 l 122 453 l 80 170 q 77 150 76 135 q 74 120 74 109 q 74 71 93 51 q 111 30 145 30 q 186 30 230 54 q 274 79 318 127 l 366 453 z"},"]":{"x_min":0,"x_max":302,"ha":302,"o":"m 132 -220 l -79 -220 l -72 -174 l 94 -174 l 215 634 l 41 634 l 49 683 l 267 683 z"},"U":{"x_min":0,"x_max":659,"ha":659,"o":"m 129 683 l 179 683 l 122 307 q 116 263 113 239 q 111 214 111 195 q 111 123 163 77 q 214 31 296 31 q 382 31 443 93 q 504 156 519 262 l 579 683 l 627 683 l 572 283 q 552 137 479 62 q 406 -12 284 -12 q 184 -12 123 47 q 61 106 61 202 q 61 215 63 232 q 64 249 70 289 z"},"o":{"x_min":0,"x_max":429,"ha":429,"o":"m 11 184 q 11 302 74 381 q 137 461 226 461 q 297 461 340 409 q 383 357 383 269 q 383 150 321 71 q 260 -9 170 -9 q 96 -9 53 42 q 11 93 11 184 z m 221 414 q 155 414 107 348 q 60 281 60 184 q 60 114 90 75 q 119 36 172 36 q 239 36 286 103 q 333 169 333 269 q 333 336 303 375 q 272 414 221 414 z"},"N":{"x_min":0,"x_max":687,"ha":687,"o":"m 75 0 l 26 0 l 128 683 l 152 683 l 524 107 l 608 683 l 659 683 l 558 0 l 536 0 l 161 582 z"},"+":{"x_min":0,"x_max":833,"ha":833,"o":"m 436 596 l 436 318 l 709 318 l 709 278 l 436 278 l 436 0 l 397 0 l 397 278 l 124 278 l 124 318 l 397 318 l 397 596 z"},"G":{"x_min":0,"x_max":624,"ha":624,"o":"m 579 286 l 550 55 q 493 21 438 4 q 382 -12 326 -12 q 199 -12 118 72 q 37 156 37 290 q 37 380 77 459 q 117 539 190 596 q 255 646 331 670 q 407 694 501 694 q 528 694 560 691 q 592 688 630 683 l 625 639 q 594 644 562 646 q 531 649 499 649 q 409 649 333 623 q 257 597 201 546 q 147 497 116 428 q 85 360 85 290 q 85 175 152 105 q 219 34 328 34 q 373 34 416 47 q 460 60 504 86 l 524 244 l 364 244 l 370 286 z"},"q":{"x_min":0,"x_max":465,"ha":465,"o":"m 321 -227 l 276 -227 l 317 47 q 275 17 241 2 q 206 -12 173 -12 q 100 -12 54 38 q 9 88 9 170 q 9 230 34 285 q 60 340 106 381 q 151 421 208 441 q 264 461 330 461 q 349 461 372 459 q 395 458 423 454 z m 326 105 l 372 417 q 363 418 353 418 q 343 419 325 419 q 210 419 134 347 q 58 276 58 169 q 58 103 89 66 q 121 29 176 29 q 214 29 252 48 q 290 68 326 105 z"},"d":{"x_min":0,"x_max":469,"ha":469,"o":"m 312 34 l 368 418 q 346 420 335 421 q 324 422 315 422 q 201 422 129 359 q 58 297 58 198 q 58 116 108 73 q 159 31 255 31 q 268 31 283 32 q 297 33 312 34 z m 356 -2 q 321 -5 293 -6 q 266 -8 246 -8 q 134 -8 73 47 q 11 101 11 201 q 11 268 46 326 q 81 385 142 420 q 175 439 218 449 q 260 459 312 459 q 327 459 343 458 q 358 458 374 456 l 408 683 l 457 683 z"},"1":{"x_min":0,"x_max":505,"ha":505,"o":"m 225 0 l 178 0 l 280 683 l 327 683 z"},"5":{"x_min":0,"x_max":505,"ha":505,"o":"m 4 44 l 25 83 q 65 58 103 46 q 140 34 175 34 q 260 34 315 90 q 370 145 370 230 q 370 303 326 346 q 283 389 209 389 q 191 389 169 385 q 147 381 122 374 l 168 683 l 459 683 l 453 636 l 208 636 l 176 424 q 190 426 203 428 q 215 429 226 429 q 313 429 366 375 q 419 320 419 231 q 419 125 350 57 q 281 -12 174 -12 q 129 -12 88 1 q 46 15 4 44 z"}}}
